<?xml version="1.0" standalone="no"?>
<!DOCTYPE svg PUBLIC "-//W3C//DTD SVG 20010904//EN"
 "http://www.w3.org/TR/2001/REC-SVG-20010904/DTD/svg10.dtd">
<svg version="1.0" xmlns="http://www.w3.org/2000/svg"
 width="419.000000pt" height="110.000000pt" viewBox="0 0 419.000000 110.000000"
 preserveAspectRatio="xMidYMid meet">

<g transform="translate(0.000000,110.000000) scale(0.100000,-0.100000)"
fill="#000000" stroke="none">
<path d="M3056 963 c-39 -4 -128 -54 -156 -88 -19 -23 -40 -83 -40 -116 0 -73
42 -152 171 -315 114 -146 131 -184 92 -215 -19 -16 -136 -15 -141 1 -2 5 -10
10 -18 10 -8 0 -14 5 -14 10 0 6 -5 10 -11 10 -5 0 -24 13 -42 30 -18 16 -34
25 -35 19 -6 -15 45 -56 108 -86 47 -24 67 -27 145 -27 101 0 159 20 206 71
41 43 49 66 49 136 0 52 -6 75 -30 123 -17 32 -43 73 -58 90 -15 17 -40 48
-57 69 -16 21 -44 54 -62 74 -18 20 -38 48 -45 64 -7 15 -16 27 -20 27 -13 0
-9 75 4 88 7 7 37 12 67 12 30 0 52 2 50 4 -8 6 -124 13 -163 9z"/>
<path d="M676 944 c-3 -8 -6 -67 -6 -130 l0 -114 -165 0 -165 0 0 125 0 125
-133 0 c-90 0 -137 -4 -145 -12 -17 -17 -17 -709 0 -726 8 -8 55 -12 145 -12
l133 0 0 193 c0 105 3 209 6 230 l7 37 158 0 159 0 2 -227 c3 -194 5 -228 18
-228 13 0 15 49 15 362 0 254 -3 367 -11 378 -10 14 -12 14 -18 -1z"/>
<path d="M904 938 c-6 -8 -9 -166 -8 -366 1 -293 3 -355 15 -363 8 -5 135 -9
282 -9 253 0 307 5 307 29 0 4 -65 8 -144 8 -80 1 -149 4 -155 8 -12 7 -16
430 -5 459 5 14 23 15 136 9 106 -5 131 -4 139 8 7 12 -15 15 -134 19 l-142 5
0 85 0 85 128 3 c96 2 127 6 124 15 -6 18 -530 23 -543 5z"/>
<path d="M1656 934 c-8 -20 -8 -682 0 -711 l6 -23 277 0 c286 0 321 3 321 26
0 11 -32 14 -152 16 l-153 3 -3 344 c-2 261 -5 347 -15 353 -6 4 -71 8 -143 8
-111 0 -133 -2 -138 -16z"/>
<path d="M2397 944 c-4 -4 -7 -170 -7 -370 0 -321 2 -363 16 -368 9 -3 71 -6
140 -6 120 0 124 1 129 22 3 13 4 181 3 373 l-3 350 -136 3 c-74 1 -138 -1
-142 -4z m134 -527 l0 -22 9 23 c10 24 42 29 58 10 5 -7 14 -29 20 -48 6 -19
15 -52 22 -73 16 -51 1 -69 -54 -65 -32 2 -41 7 -40 21 2 24 -22 22 -29 -3 -6
-25 -68 -28 -91 -4 -14 14 -14 18 -1 44 8 16 15 41 15 55 0 46 25 82 59 83 25
0 31 -3 32 -21z"/>
<path d="M3555 937 c-3 -6 -4 -174 -3 -372 l3 -360 275 -3 c283 -3 324 0 317
21 -3 9 -46 13 -152 14 -81 1 -152 6 -157 11 -6 6 -9 99 -6 231 2 183 6 223
18 231 9 6 58 8 121 4 108 -7 159 -2 159 16 0 6 -55 10 -140 10 -166 0 -166 0
-155 111 l7 69 134 0 c122 0 160 8 118 24 -9 3 -132 6 -275 6 -199 0 -261 -3
-264 -13z"/>
</g>
</svg>
